<mxfile host="app.diagrams.net" modified="2022-11-12T10:22:50.366Z" agent="5.0 (Macintosh; Intel Mac OS X 10_15_7) AppleWebKit/537.36 (KHTML, like Gecko) Chrome/107.0.0.0 Safari/537.36" etag="9nr2CaPA6bc27GJ3ZXjn" version="14.7.3" type="github">
  <diagram id="IAu0-FIRgoHb30Yu3w4v" name="Page-1">
    <mxGraphModel dx="2703" dy="1543" grid="1" gridSize="10" guides="1" tooltips="1" connect="1" arrows="1" fold="1" page="1" pageScale="1" pageWidth="827" pageHeight="1169" math="0" shadow="0">
      <root>
        <mxCell id="0" />
        <mxCell id="1" parent="0" />
        <mxCell id="aAePPr4xb7OR6YTEglRd-11" style="edgeStyle=orthogonalEdgeStyle;rounded=0;orthogonalLoop=1;jettySize=auto;html=1;entryX=0;entryY=0.25;entryDx=0;entryDy=0;" edge="1" parent="1" source="aAePPr4xb7OR6YTEglRd-1" target="aAePPr4xb7OR6YTEglRd-3">
          <mxGeometry relative="1" as="geometry" />
        </mxCell>
        <mxCell id="aAePPr4xb7OR6YTEglRd-24" style="edgeStyle=orthogonalEdgeStyle;rounded=0;orthogonalLoop=1;jettySize=auto;html=1;entryX=0;entryY=0.5;entryDx=0;entryDy=0;" edge="1" parent="1" source="aAePPr4xb7OR6YTEglRd-1" target="aAePPr4xb7OR6YTEglRd-23">
          <mxGeometry relative="1" as="geometry" />
        </mxCell>
        <mxCell id="aAePPr4xb7OR6YTEglRd-1" value="f Oscilator" style="ellipse;whiteSpace=wrap;html=1;aspect=fixed;" vertex="1" parent="1">
          <mxGeometry x="100" y="65" width="80" height="80" as="geometry" />
        </mxCell>
        <mxCell id="aAePPr4xb7OR6YTEglRd-12" style="edgeStyle=orthogonalEdgeStyle;rounded=0;orthogonalLoop=1;jettySize=auto;html=1;entryX=0;entryY=0.625;entryDx=0;entryDy=0;entryPerimeter=0;" edge="1" parent="1" source="aAePPr4xb7OR6YTEglRd-2" target="aAePPr4xb7OR6YTEglRd-3">
          <mxGeometry relative="1" as="geometry" />
        </mxCell>
        <mxCell id="aAePPr4xb7OR6YTEglRd-2" value="HF Oscillator" style="ellipse;whiteSpace=wrap;html=1;aspect=fixed;" vertex="1" parent="1">
          <mxGeometry x="100" y="180" width="80" height="80" as="geometry" />
        </mxCell>
        <mxCell id="aAePPr4xb7OR6YTEglRd-17" style="edgeStyle=orthogonalEdgeStyle;rounded=0;orthogonalLoop=1;jettySize=auto;html=1;exitX=1;exitY=0.5;exitDx=0;exitDy=0;" edge="1" parent="1" source="aAePPr4xb7OR6YTEglRd-3" target="aAePPr4xb7OR6YTEglRd-18">
          <mxGeometry relative="1" as="geometry">
            <mxPoint x="460" y="220" as="targetPoint" />
          </mxGeometry>
        </mxCell>
        <mxCell id="aAePPr4xb7OR6YTEglRd-25" style="edgeStyle=orthogonalEdgeStyle;rounded=0;orthogonalLoop=1;jettySize=auto;html=1;" edge="1" parent="1" source="aAePPr4xb7OR6YTEglRd-3">
          <mxGeometry relative="1" as="geometry">
            <mxPoint x="720" y="180" as="targetPoint" />
          </mxGeometry>
        </mxCell>
        <mxCell id="aAePPr4xb7OR6YTEglRd-3" value="BLIT Generator" style="whiteSpace=wrap;html=1;aspect=fixed;" vertex="1" parent="1">
          <mxGeometry x="260" y="140" width="80" height="80" as="geometry" />
        </mxCell>
        <mxCell id="aAePPr4xb7OR6YTEglRd-14" style="edgeStyle=orthogonalEdgeStyle;rounded=0;orthogonalLoop=1;jettySize=auto;html=1;entryX=0;entryY=0.25;entryDx=0;entryDy=0;" edge="1" parent="1" source="aAePPr4xb7OR6YTEglRd-5" target="aAePPr4xb7OR6YTEglRd-6">
          <mxGeometry relative="1" as="geometry">
            <mxPoint x="270" y="380" as="targetPoint" />
          </mxGeometry>
        </mxCell>
        <mxCell id="aAePPr4xb7OR6YTEglRd-5" value="2f oscillator" style="ellipse;whiteSpace=wrap;html=1;aspect=fixed;" vertex="1" parent="1">
          <mxGeometry x="100" y="280" width="80" height="80" as="geometry" />
        </mxCell>
        <mxCell id="aAePPr4xb7OR6YTEglRd-20" style="edgeStyle=orthogonalEdgeStyle;rounded=0;orthogonalLoop=1;jettySize=auto;html=1;exitX=1;exitY=0.5;exitDx=0;exitDy=0;entryX=0;entryY=0.5;entryDx=0;entryDy=0;" edge="1" parent="1" source="aAePPr4xb7OR6YTEglRd-6" target="aAePPr4xb7OR6YTEglRd-19">
          <mxGeometry relative="1" as="geometry" />
        </mxCell>
        <mxCell id="aAePPr4xb7OR6YTEglRd-33" style="edgeStyle=orthogonalEdgeStyle;rounded=0;orthogonalLoop=1;jettySize=auto;html=1;" edge="1" parent="1" source="aAePPr4xb7OR6YTEglRd-6">
          <mxGeometry relative="1" as="geometry">
            <mxPoint x="720" y="340" as="targetPoint" />
          </mxGeometry>
        </mxCell>
        <mxCell id="aAePPr4xb7OR6YTEglRd-6" value="BPBLIT Generator" style="whiteSpace=wrap;html=1;aspect=fixed;" vertex="1" parent="1">
          <mxGeometry x="260" y="300" width="80" height="80" as="geometry" />
        </mxCell>
        <mxCell id="aAePPr4xb7OR6YTEglRd-16" style="edgeStyle=orthogonalEdgeStyle;rounded=0;orthogonalLoop=1;jettySize=auto;html=1;entryX=-0.012;entryY=0.669;entryDx=0;entryDy=0;entryPerimeter=0;" edge="1" parent="1" source="aAePPr4xb7OR6YTEglRd-15" target="aAePPr4xb7OR6YTEglRd-6">
          <mxGeometry relative="1" as="geometry" />
        </mxCell>
        <mxCell id="aAePPr4xb7OR6YTEglRd-15" value="HF Oscillator 2" style="ellipse;whiteSpace=wrap;html=1;aspect=fixed;" vertex="1" parent="1">
          <mxGeometry x="100" y="390" width="80" height="80" as="geometry" />
        </mxCell>
        <mxCell id="aAePPr4xb7OR6YTEglRd-26" style="edgeStyle=orthogonalEdgeStyle;rounded=0;orthogonalLoop=1;jettySize=auto;html=1;" edge="1" parent="1" source="aAePPr4xb7OR6YTEglRd-18">
          <mxGeometry relative="1" as="geometry">
            <mxPoint x="720" y="260" as="targetPoint" />
          </mxGeometry>
        </mxCell>
        <mxCell id="aAePPr4xb7OR6YTEglRd-18" value="Leaky Integrator" style="whiteSpace=wrap;html=1;aspect=fixed;" vertex="1" parent="1">
          <mxGeometry x="430" y="220" width="80" height="80" as="geometry" />
        </mxCell>
        <mxCell id="aAePPr4xb7OR6YTEglRd-37" style="edgeStyle=orthogonalEdgeStyle;rounded=0;orthogonalLoop=1;jettySize=auto;html=1;exitX=1;exitY=0.5;exitDx=0;exitDy=0;" edge="1" parent="1" source="aAePPr4xb7OR6YTEglRd-19" target="aAePPr4xb7OR6YTEglRd-35">
          <mxGeometry relative="1" as="geometry" />
        </mxCell>
        <mxCell id="aAePPr4xb7OR6YTEglRd-46" style="edgeStyle=orthogonalEdgeStyle;rounded=0;orthogonalLoop=1;jettySize=auto;html=1;entryX=0;entryY=0.5;entryDx=0;entryDy=0;" edge="1" parent="1" source="aAePPr4xb7OR6YTEglRd-19" target="aAePPr4xb7OR6YTEglRd-45">
          <mxGeometry relative="1" as="geometry" />
        </mxCell>
        <mxCell id="aAePPr4xb7OR6YTEglRd-19" value="Leaky Integrator" style="whiteSpace=wrap;html=1;aspect=fixed;" vertex="1" parent="1">
          <mxGeometry x="430" y="380" width="80" height="80" as="geometry" />
        </mxCell>
        <mxCell id="aAePPr4xb7OR6YTEglRd-34" value="" style="edgeStyle=orthogonalEdgeStyle;rounded=0;orthogonalLoop=1;jettySize=auto;html=1;" edge="1" parent="1" source="aAePPr4xb7OR6YTEglRd-21" target="aAePPr4xb7OR6YTEglRd-31">
          <mxGeometry relative="1" as="geometry" />
        </mxCell>
        <mxCell id="aAePPr4xb7OR6YTEglRd-21" value="Leaky Integrator" style="whiteSpace=wrap;html=1;aspect=fixed;" vertex="1" parent="1">
          <mxGeometry x="620" y="460" width="80" height="80" as="geometry" />
        </mxCell>
        <mxCell id="aAePPr4xb7OR6YTEglRd-39" style="edgeStyle=orthogonalEdgeStyle;rounded=0;orthogonalLoop=1;jettySize=auto;html=1;exitX=1;exitY=0.5;exitDx=0;exitDy=0;" edge="1" parent="1" source="aAePPr4xb7OR6YTEglRd-23" target="aAePPr4xb7OR6YTEglRd-38">
          <mxGeometry relative="1" as="geometry" />
        </mxCell>
        <mxCell id="aAePPr4xb7OR6YTEglRd-23" value="A_sine" style="triangle;whiteSpace=wrap;html=1;" vertex="1" parent="1">
          <mxGeometry x="720" y="75" width="50" height="60" as="geometry" />
        </mxCell>
        <mxCell id="aAePPr4xb7OR6YTEglRd-40" style="edgeStyle=orthogonalEdgeStyle;rounded=0;orthogonalLoop=1;jettySize=auto;html=1;exitX=1;exitY=0.5;exitDx=0;exitDy=0;entryX=0;entryY=0;entryDx=0;entryDy=0;" edge="1" parent="1" source="aAePPr4xb7OR6YTEglRd-27" target="aAePPr4xb7OR6YTEglRd-38">
          <mxGeometry relative="1" as="geometry" />
        </mxCell>
        <mxCell id="aAePPr4xb7OR6YTEglRd-27" value="A_blit" style="triangle;whiteSpace=wrap;html=1;" vertex="1" parent="1">
          <mxGeometry x="720" y="152.5" width="50" height="55" as="geometry" />
        </mxCell>
        <mxCell id="aAePPr4xb7OR6YTEglRd-41" style="edgeStyle=orthogonalEdgeStyle;rounded=0;orthogonalLoop=1;jettySize=auto;html=1;exitX=1;exitY=0.5;exitDx=0;exitDy=0;" edge="1" parent="1" source="aAePPr4xb7OR6YTEglRd-28">
          <mxGeometry relative="1" as="geometry">
            <mxPoint x="910" y="280" as="targetPoint" />
          </mxGeometry>
        </mxCell>
        <mxCell id="aAePPr4xb7OR6YTEglRd-28" value="A_Saw" style="triangle;whiteSpace=wrap;html=1;" vertex="1" parent="1">
          <mxGeometry x="720" y="232.5" width="50" height="55" as="geometry" />
        </mxCell>
        <mxCell id="aAePPr4xb7OR6YTEglRd-42" style="edgeStyle=orthogonalEdgeStyle;rounded=0;orthogonalLoop=1;jettySize=auto;html=1;exitX=1;exitY=0.5;exitDx=0;exitDy=0;entryX=0.007;entryY=0.658;entryDx=0;entryDy=0;entryPerimeter=0;" edge="1" parent="1" source="aAePPr4xb7OR6YTEglRd-30" target="aAePPr4xb7OR6YTEglRd-38">
          <mxGeometry relative="1" as="geometry" />
        </mxCell>
        <mxCell id="aAePPr4xb7OR6YTEglRd-30" value="A_bpblit" style="triangle;whiteSpace=wrap;html=1;" vertex="1" parent="1">
          <mxGeometry x="720" y="315" width="50" height="55" as="geometry" />
        </mxCell>
        <mxCell id="aAePPr4xb7OR6YTEglRd-44" style="edgeStyle=orthogonalEdgeStyle;rounded=0;orthogonalLoop=1;jettySize=auto;html=1;entryX=0.5;entryY=1;entryDx=0;entryDy=0;" edge="1" parent="1" source="aAePPr4xb7OR6YTEglRd-31" target="aAePPr4xb7OR6YTEglRd-38">
          <mxGeometry relative="1" as="geometry" />
        </mxCell>
        <mxCell id="aAePPr4xb7OR6YTEglRd-31" value="A_Tri" style="triangle;whiteSpace=wrap;html=1;" vertex="1" parent="1">
          <mxGeometry x="720" y="472.5" width="50" height="55" as="geometry" />
        </mxCell>
        <mxCell id="aAePPr4xb7OR6YTEglRd-43" style="edgeStyle=orthogonalEdgeStyle;rounded=0;orthogonalLoop=1;jettySize=auto;html=1;exitX=1;exitY=0.5;exitDx=0;exitDy=0;entryX=0;entryY=1;entryDx=0;entryDy=0;" edge="1" parent="1" source="aAePPr4xb7OR6YTEglRd-35" target="aAePPr4xb7OR6YTEglRd-38">
          <mxGeometry relative="1" as="geometry" />
        </mxCell>
        <mxCell id="aAePPr4xb7OR6YTEglRd-35" value="A_square" style="triangle;whiteSpace=wrap;html=1;" vertex="1" parent="1">
          <mxGeometry x="720" y="392.5" width="50" height="55" as="geometry" />
        </mxCell>
        <mxCell id="aAePPr4xb7OR6YTEglRd-50" value="" style="edgeStyle=orthogonalEdgeStyle;rounded=0;orthogonalLoop=1;jettySize=auto;html=1;" edge="1" parent="1" source="aAePPr4xb7OR6YTEglRd-38" target="aAePPr4xb7OR6YTEglRd-48">
          <mxGeometry relative="1" as="geometry" />
        </mxCell>
        <mxCell id="aAePPr4xb7OR6YTEglRd-38" value="" style="shape=orEllipse;perimeter=ellipsePerimeter;whiteSpace=wrap;html=1;backgroundOutline=1;" vertex="1" parent="1">
          <mxGeometry x="910" y="250" width="80" height="80" as="geometry" />
        </mxCell>
        <mxCell id="aAePPr4xb7OR6YTEglRd-47" value="" style="edgeStyle=orthogonalEdgeStyle;rounded=0;orthogonalLoop=1;jettySize=auto;html=1;" edge="1" parent="1" source="aAePPr4xb7OR6YTEglRd-45" target="aAePPr4xb7OR6YTEglRd-21">
          <mxGeometry relative="1" as="geometry" />
        </mxCell>
        <mxCell id="aAePPr4xb7OR6YTEglRd-45" value="" style="triangle;whiteSpace=wrap;html=1;" vertex="1" parent="1">
          <mxGeometry x="550" y="472.5" width="50" height="55" as="geometry" />
        </mxCell>
        <mxCell id="aAePPr4xb7OR6YTEglRd-48" value="" style="triangle;whiteSpace=wrap;html=1;" vertex="1" parent="1">
          <mxGeometry x="1070" y="260" width="50" height="60" as="geometry" />
        </mxCell>
        <mxCell id="aAePPr4xb7OR6YTEglRd-52" style="edgeStyle=orthogonalEdgeStyle;rounded=0;orthogonalLoop=1;jettySize=auto;html=1;" edge="1" parent="1" source="aAePPr4xb7OR6YTEglRd-51" target="aAePPr4xb7OR6YTEglRd-48">
          <mxGeometry relative="1" as="geometry" />
        </mxCell>
        <mxCell id="aAePPr4xb7OR6YTEglRd-51" value="Envelope Generator" style="whiteSpace=wrap;html=1;aspect=fixed;" vertex="1" parent="1">
          <mxGeometry x="1055" y="520" width="80" height="80" as="geometry" />
        </mxCell>
        <mxCell id="aAePPr4xb7OR6YTEglRd-55" value="" style="endArrow=classic;html=1;exitX=1;exitY=0.5;exitDx=0;exitDy=0;" edge="1" parent="1" source="aAePPr4xb7OR6YTEglRd-48">
          <mxGeometry width="50" height="50" relative="1" as="geometry">
            <mxPoint x="640" y="430" as="sourcePoint" />
            <mxPoint x="1320" y="290" as="targetPoint" />
          </mxGeometry>
        </mxCell>
        <mxCell id="aAePPr4xb7OR6YTEglRd-56" value="Sine" style="text;html=1;align=center;verticalAlign=middle;resizable=0;points=[];autosize=1;strokeColor=none;" vertex="1" parent="1">
          <mxGeometry x="787" y="80" width="40" height="20" as="geometry" />
        </mxCell>
        <mxCell id="aAePPr4xb7OR6YTEglRd-57" value="BLIT" style="text;html=1;align=center;verticalAlign=middle;resizable=0;points=[];autosize=1;strokeColor=none;" vertex="1" parent="1">
          <mxGeometry x="787" y="152.5" width="40" height="20" as="geometry" />
        </mxCell>
        <mxCell id="aAePPr4xb7OR6YTEglRd-58" value="Sawtooth" style="text;html=1;strokeColor=none;fillColor=none;align=center;verticalAlign=middle;whiteSpace=wrap;rounded=0;opacity=0;" vertex="1" parent="1">
          <mxGeometry x="787" y="232.5" width="40" height="20" as="geometry" />
        </mxCell>
        <mxCell id="aAePPr4xb7OR6YTEglRd-59" value="BPBLIT" style="text;html=1;strokeColor=none;fillColor=none;align=center;verticalAlign=middle;whiteSpace=wrap;rounded=0;opacity=0;" vertex="1" parent="1">
          <mxGeometry x="780" y="320" width="40" height="20" as="geometry" />
        </mxCell>
      </root>
    </mxGraphModel>
  </diagram>
</mxfile>
